<?xml version="1.0" standalone="no"?>
<!DOCTYPE svg PUBLIC "-//W3C//DTD SVG 20010904//EN"
 "http://www.w3.org/TR/2001/REC-SVG-20010904/DTD/svg10.dtd">
<svg version="1.0" xmlns="http://www.w3.org/2000/svg"
 width="898.000000pt" height="1045.000000pt" viewBox="0 0 898.000000 1045.000000"
 preserveAspectRatio="xMidYMid meet">

<g transform="translate(0.000000,1045.000000) scale(0.100000,-0.100000)"
fill="#000000" stroke="none">
<path d="M4256 10280 c-228 -15 -314 -37 -340 -88 -19 -37 -86 -270 -125 -432
-129 -542 -172 -1169 -116 -1710 19 -187 36 -254 70 -276 23 -15 33 -15 123 0
54 9 115 21 135 27 64 17 67 26 67 168 0 161 11 397 19 410 12 19 354 41 624
40 144 -1 273 -4 286 -8 21 -6 28 -21 53 -111 15 -58 42 -170 58 -250 43 -201
45 -207 83 -219 49 -16 220 -41 277 -41 38 0 52 4 60 19 14 28 12 164 -5 342
-64 636 -232 1236 -516 1843 -99 212 -128 255 -185 274 -48 17 -383 24 -568
12z m265 -622 c158 -291 396 -829 387 -876 -3 -15 -27 -17 -244 -18 -132 -1
-307 -7 -388 -14 -84 -7 -152 -8 -157 -3 -16 16 69 440 137 683 38 135 111
364 126 393 20 38 44 9 139 -165z"/>
<path d="M5830 10187 c-16 -8 -24 -20 -22 -33 2 -10 35 -86 74 -169 208 -441
327 -807 397 -1215 41 -241 56 -169 -139 -648 -95 -232 -170 -428 -167 -436
13 -34 219 -116 292 -116 22 0 46 5 53 12 6 6 116 190 244 409 l232 397 128
81 c448 286 890 499 1410 681 173 61 248 94 248 109 0 43 -363 248 -548 310
-98 33 -119 29 -269 -50 -373 -195 -684 -399 -898 -585 -40 -35 -80 -64 -88
-64 -11 0 -15 33 -21 173 -7 180 -21 296 -62 512 -31 160 -99 426 -119 465
-25 48 -103 80 -298 120 -238 48 -410 67 -447 47z"/>
<path d="M2105 9809 c-165 -22 -411 -94 -605 -176 -252 -107 -769 -379 -866
-457 -68 -54 -92 -125 -59 -173 20 -28 1920 -1685 1952 -1702 21 -11 34 -11
67 -1 99 29 261 135 254 167 -2 6 -135 161 -296 343 -161 182 -292 335 -290
341 2 5 92 52 201 104 288 137 412 217 524 339 117 128 172 254 180 417 17
307 -136 583 -394 714 -121 61 -242 87 -433 90 -91 2 -196 -1 -235 -6z m80
-414 c190 -49 321 -182 371 -377 32 -125 -4 -237 -107 -333 -49 -45 -97 -73
-246 -145 -102 -50 -192 -90 -201 -90 -15 0 -621 674 -630 700 -5 14 45 42
203 114 299 137 455 170 610 131z"/>
<path d="M3105 6499 c-298 -16 -557 -96 -760 -232 -79 -53 -206 -176 -261
-253 -167 -233 -240 -548 -214 -923 39 -555 278 -878 753 -1015 274 -80 697
-95 992 -35 596 120 935 509 974 1117 43 686 -215 1117 -762 1276 -152 44
-238 55 -527 70 -36 1 -123 0 -195 -5z m247 -369 c464 -44 678 -348 655 -930
-8 -207 -33 -322 -100 -455 -83 -166 -240 -292 -424 -339 -152 -39 -386 -39
-538 -1 -155 39 -296 141 -374 269 -131 218 -163 693 -65 987 89 272 309 438
619 468 117 12 111 12 227 1z"/>
<path d="M7098 6457 c-85 -24 -78 35 -77 -651 0 -336 4 -721 8 -856 8 -248 4
-288 -25 -258 -7 7 -45 72 -85 143 -40 72 -116 202 -169 290 -85 141 -638
1017 -726 1150 -50 75 -103 125 -164 154 -54 26 -59 26 -320 29 -260 3 -266 2
-309 -20 -25 -13 -54 -36 -65 -51 -21 -28 -21 -36 -24 -1158 -2 -766 1 -1136
8 -1149 17 -33 81 -42 265 -38 145 3 175 6 199 21 l28 19 -6 891 c-3 491 -7
910 -8 932 -2 30 1 40 13 43 12 2 35 -32 86 -130 101 -192 156 -283 601 -982
220 -346 420 -652 444 -680 87 -98 171 -120 447 -114 166 3 178 4 220 28 88
50 81 -53 81 1220 0 619 -4 1130 -8 1136 -20 30 -61 38 -212 41 -106 2 -170
-1 -202 -10z"/>
<path d="M1915 3622 c-108 -73 -405 -341 -655 -591 -394 -394 -670 -727 -963
-1158 -53 -79 -100 -155 -103 -170 -10 -40 21 -88 102 -157 143 -121 458 -314
584 -356 102 -34 137 -27 282 61 439 265 956 641 1385 1009 68 58 93 67 93 35
0 -7 -24 -75 -54 -152 -70 -179 -136 -367 -187 -529 -100 -320 -229 -898 -210
-946 18 -47 90 -88 242 -136 350 -112 632 -150 706 -96 93 69 463 575 680 929
189 308 376 672 517 1004 60 141 79 195 80 234 1 48 -1 51 -29 59 -50 15 -259
22 -281 10 -11 -6 -51 -68 -89 -139 -151 -282 -359 -621 -538 -878 -181 -259
-553 -735 -592 -757 -29 -17 -33 16 -20 142 55 528 174 1053 356 1572 39 112
73 215 76 229 7 36 -22 56 -152 108 -116 46 -161 57 -199 47 -13 -3 -85 -55
-160 -115 -514 -415 -1075 -787 -1673 -1110 -138 -74 -163 -82 -163 -55 0 48
361 581 597 881 200 256 524 625 682 778 23 21 41 47 41 56 0 9 -30 45 -68 80
-172 163 -196 172 -287 111z"/>
<path d="M7322 3633 c-64 -44 -191 -162 -207 -194 -15 -27 -13 -33 49 -161 86
-178 140 -307 219 -523 178 -488 177 -482 85 -431 -103 57 -515 310 -628 386
-63 43 -180 125 -258 184 -119 87 -150 106 -179 106 -42 0 -288 -95 -315 -122
-18 -18 -18 -20 -1 -49 36 -61 357 -336 589 -505 239 -173 554 -365 794 -484
l85 -42 279 -383 c161 -222 287 -385 298 -388 11 -3 45 1 76 9 67 17 290 125
380 183 73 48 162 128 162 146 0 12 -77 95 -477 512 l-194 202 -49 193 c-87
346 -170 566 -335 893 -155 309 -275 495 -319 495 -7 0 -31 -12 -54 -27z"/>
<path d="M5465 2723 c-156 -19 -314 -47 -337 -59 -36 -19 -40 -29 -78 -184
-107 -435 -266 -856 -472 -1250 -140 -268 -299 -533 -432 -720 -83 -117 -126
-190 -126 -215 0 -47 119 -67 405 -69 264 -1 257 -5 342 159 34 66 90 182 125
258 34 76 69 142 78 146 8 5 78 11 155 15 283 13 672 61 960 117 l150 29 50
-53 c28 -29 120 -129 204 -221 85 -92 168 -174 184 -182 39 -21 133 -6 334 52
257 74 373 124 373 163 0 23 -59 78 -210 196 -580 456 -1157 1096 -1520 1687
-64 105 -76 119 -108 128 -21 5 -39 9 -42 8 -3 0 -18 -3 -35 -5z m-6 -586
c136 -259 308 -539 470 -761 58 -81 69 -102 59 -112 -28 -27 -673 -114 -845
-114 -66 0 -66 -2 -13 155 81 240 155 530 199 780 32 179 31 175 49 175 11 0
38 -41 81 -123z"/>
</g>
</svg>
